<svg xmlns="http://www.w3.org/2000/svg" width="1200" height="520" viewBox="0 0 1200 520">
  <rect width="100%" height="100%" fill="#f7fafc"/>
  <text x="600.0" y="32" text-anchor="middle" font-size="22" fill="#1b2a41" font-weight="700">Sri Lanka Employment Ratio Yearly Averages (From Monthly Series)</text>
  <text x="600.0" y="508" text-anchor="middle" font-size="13" fill="#32475b">Year</text>
  <text transform="translate(18,260.0) rotate(-90)" text-anchor="middle" font-size="13" fill="#32475b">Employment Ratio (%)</text>

  <line x1="70" y1="60.00" x2="1160" y2="60.00" stroke="#e3e8ef" stroke-width="1"/><line x1="70" y1="125.00" x2="1160" y2="125.00" stroke="#e3e8ef" stroke-width="1"/><line x1="70" y1="190.00" x2="1160" y2="190.00" stroke="#e3e8ef" stroke-width="1"/><line x1="70" y1="255.00" x2="1160" y2="255.00" stroke="#e3e8ef" stroke-width="1"/><line x1="70" y1="320.00" x2="1160" y2="320.00" stroke="#e3e8ef" stroke-width="1"/><line x1="70" y1="385.00" x2="1160" y2="385.00" stroke="#e3e8ef" stroke-width="1"/><line x1="70" y1="450.00" x2="1160" y2="450.00" stroke="#e3e8ef" stroke-width="1"/>
  <line x1="70" y1="60" x2="70" y2="450" stroke="#1b2a41" stroke-width="1.5"/>
  <line x1="70" y1="450" x2="1160" y2="450" stroke="#1b2a41" stroke-width="1.5"/>

  <rect x="70.00" y="278.34" width="28.25" height="171.66" fill="#2ca02c" opacity="0.88"/><rect x="104.25" y="297.70" width="28.25" height="152.30" fill="#2ca02c" opacity="0.88"/><rect x="138.50" y="261.74" width="28.25" height="188.26" fill="#2ca02c" opacity="0.88"/><rect x="172.75" y="150.79" width="28.25" height="299.21" fill="#2ca02c" opacity="0.88"/><rect x="207.00" y="60.00" width="28.25" height="390.00" fill="#2ca02c" opacity="0.88"/><rect x="241.25" y="120.41" width="28.25" height="329.59" fill="#2ca02c" opacity="0.88"/><rect x="275.50" y="156.60" width="28.25" height="293.40" fill="#2ca02c" opacity="0.88"/><rect x="309.75" y="182.92" width="28.25" height="267.08" fill="#2ca02c" opacity="0.88"/><rect x="344.00" y="201.15" width="28.25" height="248.85" fill="#2ca02c" opacity="0.88"/><rect x="378.25" y="206.00" width="28.25" height="244.00" fill="#2ca02c" opacity="0.88"/><rect x="412.50" y="210.37" width="28.25" height="239.63" fill="#2ca02c" opacity="0.88"/><rect x="446.75" y="194.21" width="28.25" height="255.79" fill="#2ca02c" opacity="0.88"/><rect x="481.00" y="179.62" width="28.25" height="270.38" fill="#2ca02c" opacity="0.88"/><rect x="515.25" y="172.64" width="28.25" height="277.36" fill="#2ca02c" opacity="0.88"/><rect x="549.50" y="181.05" width="28.25" height="268.95" fill="#2ca02c" opacity="0.88"/><rect x="583.75" y="188.70" width="28.25" height="261.30" fill="#2ca02c" opacity="0.88"/><rect x="618.00" y="179.49" width="28.25" height="270.51" fill="#2ca02c" opacity="0.88"/><rect x="652.25" y="185.21" width="28.25" height="264.79" fill="#2ca02c" opacity="0.88"/><rect x="686.50" y="206.69" width="28.25" height="243.31" fill="#2ca02c" opacity="0.88"/><rect x="720.75" y="237.09" width="28.25" height="212.91" fill="#2ca02c" opacity="0.88"/><rect x="755.00" y="204.22" width="28.25" height="245.78" fill="#2ca02c" opacity="0.88"/><rect x="789.25" y="145.30" width="28.25" height="304.70" fill="#2ca02c" opacity="0.88"/><rect x="823.50" y="130.02" width="28.25" height="319.98" fill="#2ca02c" opacity="0.88"/><rect x="857.75" y="178.14" width="28.25" height="271.86" fill="#2ca02c" opacity="0.88"/><rect x="892.00" y="239.66" width="28.25" height="210.34" fill="#2ca02c" opacity="0.88"/><rect x="926.25" y="281.45" width="28.25" height="168.55" fill="#2ca02c" opacity="0.88"/><rect x="960.50" y="353.22" width="28.25" height="96.78" fill="#2ca02c" opacity="0.88"/><rect x="994.75" y="363.10" width="28.25" height="86.90" fill="#2ca02c" opacity="0.88"/><rect x="1029.00" y="415.93" width="28.25" height="34.07" fill="#2ca02c" opacity="0.88"/><rect x="1063.25" y="450.00" width="28.25" height="0.00" fill="#2ca02c" opacity="0.88"/><rect x="1097.50" y="410.49" width="28.25" height="39.51" fill="#2ca02c" opacity="0.88"/><rect x="1131.75" y="409.47" width="28.25" height="40.53" fill="#2ca02c" opacity="0.88"/>
  <text x="60" y="64.00" text-anchor="end" font-size="12" fill="#32475b">52.87</text><text x="60" y="129.00" text-anchor="end" font-size="12" fill="#32475b">51.70</text><text x="60" y="194.00" text-anchor="end" font-size="12" fill="#32475b">50.53</text><text x="60" y="259.00" text-anchor="end" font-size="12" fill="#32475b">49.36</text><text x="60" y="324.00" text-anchor="end" font-size="12" fill="#32475b">48.19</text><text x="60" y="389.00" text-anchor="end" font-size="12" fill="#32475b">47.02</text><text x="60" y="454.00" text-anchor="end" font-size="12" fill="#32475b">45.84</text>
  <text x="84.12" y="468" text-anchor="middle" font-size="10" fill="#32475b">1994</text><text x="152.62" y="468" text-anchor="middle" font-size="10" fill="#32475b">1996</text><text x="221.12" y="468" text-anchor="middle" font-size="10" fill="#32475b">1998</text><text x="289.62" y="468" text-anchor="middle" font-size="10" fill="#32475b">2000</text><text x="358.12" y="468" text-anchor="middle" font-size="10" fill="#32475b">2002</text><text x="426.62" y="468" text-anchor="middle" font-size="10" fill="#32475b">2004</text><text x="495.12" y="468" text-anchor="middle" font-size="10" fill="#32475b">2006</text><text x="563.62" y="468" text-anchor="middle" font-size="10" fill="#32475b">2008</text><text x="632.12" y="468" text-anchor="middle" font-size="10" fill="#32475b">2010</text><text x="700.62" y="468" text-anchor="middle" font-size="10" fill="#32475b">2012</text><text x="769.12" y="468" text-anchor="middle" font-size="10" fill="#32475b">2014</text><text x="837.62" y="468" text-anchor="middle" font-size="10" fill="#32475b">2016</text><text x="906.12" y="468" text-anchor="middle" font-size="10" fill="#32475b">2018</text><text x="974.62" y="468" text-anchor="middle" font-size="10" fill="#32475b">2020</text><text x="1043.12" y="468" text-anchor="middle" font-size="10" fill="#32475b">2022</text><text x="1111.62" y="468" text-anchor="middle" font-size="10" fill="#32475b">2024</text><text x="1145.88" y="468" text-anchor="middle" font-size="10" fill="#32475b">2025</text>
</svg>