<svg xmlns="http://www.w3.org/2000/svg" width="1200" height="480" viewBox="0 0 1200 480">
  <rect width="100%" height="100%" fill="#f7fafc"/>
  <text x="600.0" y="32" text-anchor="middle" font-size="22" fill="#1b2a41" font-weight="700">Sri Lanka Employment Ratio Monthly Trend (1994-2025)</text>
  <text x="600.0" y="468" text-anchor="middle" font-size="13" fill="#32475b">Month / Year</text>
  <text transform="translate(18,240.0) rotate(-90)" text-anchor="middle" font-size="13" fill="#32475b">Employment Ratio (%)</text>

  <line x1="70" y1="60.00" x2="1160" y2="60.00" stroke="#e3e8ef" stroke-width="1"/><line x1="70" y1="120.00" x2="1160" y2="120.00" stroke="#e3e8ef" stroke-width="1"/><line x1="70" y1="180.00" x2="1160" y2="180.00" stroke="#e3e8ef" stroke-width="1"/><line x1="70" y1="240.00" x2="1160" y2="240.00" stroke="#e3e8ef" stroke-width="1"/><line x1="70" y1="300.00" x2="1160" y2="300.00" stroke="#e3e8ef" stroke-width="1"/><line x1="70" y1="360.00" x2="1160" y2="360.00" stroke="#e3e8ef" stroke-width="1"/><line x1="70" y1="420.00" x2="1160" y2="420.00" stroke="#e3e8ef" stroke-width="1"/>
  <line x1="70" y1="60" x2="70" y2="420" stroke="#1b2a41" stroke-width="1.5"/>
  <line x1="70" y1="420" x2="1160" y2="420" stroke="#1b2a41" stroke-width="1.5"/>

  <polyline fill="none" stroke="#1f77b4" stroke-width="2.5" points="70.00,228.19 72.85,233.56 75.69,238.93 78.54,244.30 81.38,249.66 84.23,255.03 87.08,260.40 89.92,265.76 92.77,271.13 95.61,276.50 98.46,281.86 101.31,287.23 104.15,292.60 107.00,289.05 109.84,285.51 112.69,281.96 115.54,278.41 118.38,274.87 121.23,271.32 124.07,267.78 126.92,264.23 129.77,260.68 132.61,257.14 135.46,253.59 138.30,250.04 141.15,249.04 143.99,248.04 146.84,247.04 149.69,246.04 152.53,245.03 155.38,244.03 158.22,243.03 161.07,242.03 163.92,241.02 166.76,240.02 169.61,239.02 172.45,238.02 175.30,223.18 178.15,208.35 180.99,193.51 183.84,178.68 186.68,163.84 189.53,149.01 192.38,134.17 195.22,119.34 198.07,104.50 200.91,89.67 203.76,74.83 206.61,60.00 209.45,64.42 212.30,68.85 215.14,73.27 217.99,77.69 220.84,82.12 223.68,86.54 226.53,90.97 229.37,95.39 232.22,99.81 235.07,104.24 237.91,108.66 240.76,113.08 243.60,116.58 246.45,120.07 249.30,123.57 252.14,127.06 254.99,130.56 257.83,134.05 260.68,137.55 263.52,141.04 266.37,144.54 269.22,148.03 272.06,151.53 274.91,155.02 277.75,156.12 280.60,157.21 283.45,158.30 286.29,159.40 289.14,160.49 291.98,161.59 294.83,162.68 297.68,163.77 300.52,164.87 303.37,165.96 306.21,167.06 309.06,168.15 311.91,170.66 314.75,173.16 317.60,175.67 320.44,178.18 323.29,180.69 326.14,183.19 328.98,185.70 331.83,188.21 334.67,190.72 337.52,193.22 340.37,195.73 343.21,198.24 346.06,197.91 348.90,197.58 351.75,197.25 354.60,196.92 357.44,196.59 360.29,196.26 363.13,195.93 365.98,195.59 368.83,195.26 371.67,194.93 374.52,194.60 377.36,194.27 380.21,195.36 383.05,196.45 385.90,197.54 388.75,198.63 391.59,199.72 394.44,200.81 397.28,201.91 400.13,203.00 402.98,204.09 405.82,205.18 408.67,206.27 411.51,207.36 414.36,206.70 417.21,206.04 420.05,205.39 422.90,204.73 425.74,204.07 428.59,203.41 431.44,202.76 434.28,202.10 437.13,201.44 439.97,200.79 442.82,200.13 445.67,199.47 448.51,197.91 451.36,196.36 454.20,194.80 457.05,193.25 459.90,191.69 462.74,190.13 465.59,188.58 468.43,187.02 471.28,185.46 474.13,183.91 476.97,182.35 479.82,180.79 482.66,180.52 485.51,180.26 488.36,179.99 491.20,179.72 494.05,179.45 496.89,179.19 499.74,178.92 502.58,178.65 505.43,178.38 508.28,178.11 511.12,177.85 513.97,177.58 516.81,176.89 519.66,176.20 522.51,175.51 525.35,174.82 528.20,174.13 531.04,173.44 533.89,172.75 536.74,172.06 539.58,171.37 542.43,170.68 545.27,169.99 548.12,169.30 550.97,171.33 553.81,173.36 556.66,175.39 559.50,177.42 562.35,179.45 565.20,181.48 568.04,183.51 570.89,185.54 573.73,187.57 576.58,189.60 579.43,191.63 582.27,193.66 585.12,192.36 587.96,191.06 590.81,189.77 593.66,188.47 596.50,187.18 599.35,185.88 602.19,184.59 605.04,183.29 607.89,181.99 610.73,180.70 613.58,179.40 616.42,178.11 619.27,178.31 622.11,178.51 624.96,178.71 627.81,178.91 630.65,179.12 633.50,179.32 636.34,179.52 639.19,179.72 642.04,179.92 644.88,180.12 647.73,180.33 650.57,180.53 653.42,181.12 656.27,181.70 659.11,182.29 661.96,182.88 664.80,183.47 667.65,184.05 670.50,184.64 673.34,185.23 676.19,185.81 679.03,186.40 681.88,186.99 684.73,187.58 687.57,189.99 690.42,192.39 693.26,194.80 696.11,197.21 698.96,199.62 701.80,202.03 704.65,204.43 707.49,206.84 710.34,209.25 713.19,211.66 716.03,214.07 718.88,216.48 721.72,218.02 724.57,219.56 727.42,221.10 730.26,222.64 733.11,224.19 735.95,225.73 738.80,227.27 741.64,228.81 744.49,230.35 747.34,231.89 750.18,233.44 753.03,234.98 755.87,228.41 758.72,221.84 761.57,215.28 764.41,208.71 767.26,202.14 770.10,195.57 772.95,189.01 775.80,182.44 778.64,175.87 781.49,169.30 784.33,162.73 787.18,156.17 790.03,155.42 792.87,154.68 795.72,153.93 798.56,153.19 801.41,152.44 804.26,151.70 807.10,150.95 809.95,150.21 812.79,149.46 815.64,148.72 818.49,147.97 821.33,147.22 824.18,145.90 827.02,144.57 829.87,143.25 832.72,141.92 835.56,140.60 838.41,139.27 841.25,137.95 844.10,136.62 846.95,135.30 849.79,133.97 852.64,132.65 855.48,131.32 858.33,139.83 861.17,148.35 864.02,156.86 866.87,165.37 869.71,173.89 872.56,182.40 875.40,190.91 878.25,199.43 881.10,207.94 883.94,216.45 886.79,224.97 889.63,233.48 892.48,232.30 895.33,231.12 898.17,229.94 901.02,228.77 903.86,227.59 906.71,226.41 909.56,225.23 912.40,224.05 915.25,222.87 918.09,221.70 920.94,220.52 923.79,219.34 926.63,226.77 929.48,234.19 932.32,241.62 935.17,249.05 938.02,256.47 940.86,263.90 943.71,271.33 946.55,278.75 949.40,286.18 952.25,293.60 955.09,301.03 957.94,308.46 960.78,310.04 963.63,311.63 966.48,313.22 969.32,314.80 972.17,316.39 975.01,317.97 977.86,319.56 980.70,321.15 983.55,322.73 986.40,324.32 989.24,325.90 992.09,327.49 994.93,327.04 997.78,326.59 1000.63,326.15 1003.47,325.70 1006.32,325.25 1009.16,324.80 1012.01,324.35 1014.86,323.91 1017.70,323.46 1020.55,323.01 1023.39,322.56 1026.24,322.11 1029.09,330.27 1031.93,338.43 1034.78,346.59 1037.62,354.74 1040.47,362.90 1043.32,371.06 1046.16,379.21 1049.01,387.37 1051.85,395.53 1054.70,403.69 1057.55,411.84 1060.39,420.00 1063.24,415.28 1066.08,410.56 1068.93,405.84 1071.78,401.12 1074.62,396.40 1077.47,391.67 1080.31,386.95 1083.16,382.23 1086.01,377.51 1088.85,372.79 1091.70,368.07 1094.54,363.35 1097.39,363.22 1100.23,363.10 1103.08,362.97 1105.93,362.85 1108.77,362.72 1111.62,362.60 1114.46,362.47 1117.31,362.35 1120.16,362.22 1123.00,362.10 1125.85,361.98 1128.69,361.85 1131.54,361.85 1134.39,361.85 1137.23,361.85 1140.08,361.85 1142.92,361.85 1145.77,361.85 1148.62,361.85 1151.46,361.85 1154.31,361.85 1157.15,361.85 1160.00,361.85"/>

  <text x="60" y="64.00" text-anchor="end" font-size="12" fill="#32475b">53.43</text><text x="60" y="124.00" text-anchor="end" font-size="12" fill="#32475b">52.06</text><text x="60" y="184.00" text-anchor="end" font-size="12" fill="#32475b">50.70</text><text x="60" y="244.00" text-anchor="end" font-size="12" fill="#32475b">49.34</text><text x="60" y="304.00" text-anchor="end" font-size="12" fill="#32475b">47.98</text><text x="60" y="364.00" text-anchor="end" font-size="12" fill="#32475b">46.62</text><text x="60" y="424.00" text-anchor="end" font-size="12" fill="#32475b">45.25</text>
  <text x="70.00" y="440" text-anchor="middle" font-size="11" fill="#32475b">1994-01</text><text x="138.30" y="440" text-anchor="middle" font-size="11" fill="#32475b">1996-01</text><text x="206.61" y="440" text-anchor="middle" font-size="11" fill="#32475b">1998-01</text><text x="274.91" y="440" text-anchor="middle" font-size="11" fill="#32475b">2000-01</text><text x="343.21" y="440" text-anchor="middle" font-size="11" fill="#32475b">2002-01</text><text x="411.51" y="440" text-anchor="middle" font-size="11" fill="#32475b">2004-01</text><text x="479.82" y="440" text-anchor="middle" font-size="11" fill="#32475b">2006-01</text><text x="548.12" y="440" text-anchor="middle" font-size="11" fill="#32475b">2008-01</text><text x="616.42" y="440" text-anchor="middle" font-size="11" fill="#32475b">2010-01</text><text x="684.73" y="440" text-anchor="middle" font-size="11" fill="#32475b">2012-01</text><text x="753.03" y="440" text-anchor="middle" font-size="11" fill="#32475b">2014-01</text><text x="821.33" y="440" text-anchor="middle" font-size="11" fill="#32475b">2016-01</text><text x="889.63" y="440" text-anchor="middle" font-size="11" fill="#32475b">2018-01</text><text x="957.94" y="440" text-anchor="middle" font-size="11" fill="#32475b">2020-01</text><text x="1026.24" y="440" text-anchor="middle" font-size="11" fill="#32475b">2022-01</text><text x="1094.54" y="440" text-anchor="middle" font-size="11" fill="#32475b">2024-01</text><text x="1160.00" y="440" text-anchor="middle" font-size="11" fill="#32475b">2025-12</text>
</svg>